<?xml version="1.0" standalone="no"?>
<!DOCTYPE svg PUBLIC "-//W3C//DTD SVG 20010904//EN"
 "http://www.w3.org/TR/2001/REC-SVG-20010904/DTD/svg10.dtd">
<svg version="1.0" xmlns="http://www.w3.org/2000/svg"
 width="600.000000pt" height="600.000000pt" viewBox="0 0 600.000000 600.000000"
 preserveAspectRatio="xMidYMid meet">

<g transform="translate(0.000000,600.000000) scale(0.100000,-0.100000)"
fill="#000000" stroke="none">
<path d="M2817 5228 c-163 -149 -220 -256 -220 -411 l1 -89 -31 54 c-29 50
-31 60 -35 181 -3 71 -8 125 -11 120 -32 -36 -111 -282 -111 -341 0 -36 21
-100 64 -200 20 -46 36 -86 36 -88 0 -4 -78 41 -125 72 l-25 16 24 -53 c16
-34 48 -76 86 -111 62 -60 80 -69 80 -43 0 8 5 15 10 15 6 0 -6 -30 -25 -66
-44 -82 -40 -97 5 -17 24 42 35 77 41 133 15 129 19 143 33 131 7 -6 16 -8 19
-4 4 3 7 -5 7 -18 l1 -24 14 25 14 25 10 -25 c10 -23 11 -22 10 15 -1 22 1 47
5 57 7 16 124 103 131 97 2 -2 -16 -30 -40 -61 -38 -51 -92 -164 -82 -174 2
-2 44 23 93 55 76 51 232 125 242 116 2 -2 -3 -16 -12 -33 -12 -23 -20 -28
-40 -25 -33 7 -106 -31 -152 -78 -43 -44 -38 -52 8 -14 34 29 106 51 120 37 6
-6 6 -17 -1 -31 -10 -18 -18 -20 -49 -15 -29 5 -43 1 -62 -15 l-25 -21 30 15
c52 26 88 16 58 -17 -22 -24 -12 -32 21 -16 36 16 49 -2 42 -57 -4 -32 -2 -36
6 -21 6 10 8 36 5 58 -5 35 -2 41 20 51 21 9 27 8 39 -8 10 -14 11 -22 2 -32
-8 -11 -7 -12 5 -7 9 3 33 29 54 57 l37 52 7 -30 c13 -58 10 -101 -9 -118 -10
-9 -44 -29 -75 -45 l-58 -29 40 -7 c22 -3 48 -3 58 0 14 4 12 0 -7 -18 -24
-22 -24 -24 -8 -40 23 -23 22 -23 66 7 49 33 99 34 108 1 3 -13 4 -35 1 -47
-3 -19 -5 -16 -6 9 -1 39 -20 49 -62 31 -34 -13 -79 -54 -79 -69 0 -6 9 -19
20 -30 11 -11 20 -22 20 -24 0 -2 -18 -6 -41 -10 -26 -4 -52 -17 -71 -37 -40
-39 -117 -59 -233 -59 -86 0 -95 2 -138 31 -26 17 -72 58 -102 92 -30 33 -55
55 -55 49 0 -7 -7 -12 -15 -12 -14 0 -13 -3 1 -25 9 -14 20 -23 25 -20 11 8
29 -62 29 -116 0 -45 -21 -112 -38 -123 -5 -3 -33 6 -62 20 -29 14 -54 23 -56
21 -3 -2 9 -10 25 -17 41 -17 68 -47 53 -62 -12 -12 -46 -3 -38 11 8 13 -10
25 -97 65 -91 41 -97 34 -7 -9 59 -28 61 -30 56 -61 -5 -22 -1 -38 14 -57 11
-14 20 -32 20 -40 0 -9 5 -19 12 -23 7 -4 8 -3 4 4 -4 7 -4 17 0 24 5 8 14 3
29 -15 l21 -27 41 19 c36 18 41 24 47 67 3 26 4 50 1 52 -3 3 -19 -4 -35 -17
-40 -29 -114 -43 -137 -25 -16 11 -11 12 33 7 49 -5 52 -4 77 29 50 65 59 102
47 180 -19 125 6 93 51 -65 16 -55 40 -117 54 -137 14 -20 25 -40 25 -44 0 -4
14 -27 30 -51 17 -24 30 -45 30 -47 0 -2 -16 -2 -35 0 -19 2 -35 2 -35 -1 0
-3 17 -16 38 -28 72 -44 132 -100 132 -124 0 -22 36 -55 60 -55 6 0 19 -8 28
-17 16 -16 16 -16 -5 -11 -14 4 -28 -1 -39 -13 -23 -25 -25 -24 -52 16 -24 34
-70 71 -78 62 -3 -3 4 -21 15 -41 12 -20 16 -36 11 -36 -13 0 -83 96 -105 145
-28 61 -30 24 -2 -44 14 -34 23 -61 22 -61 -2 0 -19 24 -39 54 -35 52 -71 86
-108 99 -30 11 -29 -6 4 -41 18 -19 26 -31 17 -26 -19 10 -110 109 -128 139
-11 18 -12 18 -6 -7 l5 -28 -32 20 c-80 49 -230 75 -281 49 -61 -32 -111 -85
-143 -153 -40 -83 -49 -125 -37 -163 8 -24 9 -22 9 22 -1 78 59 193 126 244
29 22 66 43 81 46 52 13 246 -42 232 -65 -3 -6 0 -7 8 -4 14 5 53 -23 108 -76
25 -25 119 -168 132 -202 3 -10 14 -18 22 -18 11 0 15 6 11 18 -2 9 -8 28 -12
42 -4 16 11 2 47 -40 78 -95 98 -115 105 -108 3 4 1 21 -5 39 -16 46 -4 50 14
5 10 -22 20 -34 27 -30 12 8 5 -54 -14 -118 -10 -34 -88 -138 -109 -146 -25
-10 -3 27 38 65 25 24 44 45 41 48 -3 3 -36 -11 -73 -31 -66 -36 -68 -37 -96
-20 -23 13 -41 16 -89 10 -50 -6 -60 -4 -60 9 0 9 15 20 35 27 49 16 85 63 85
108 l-1 37 -19 -37 c-11 -20 -24 -40 -30 -43 -13 -8 -13 -8 10 52 38 101 25
195 -37 263 -13 14 -23 28 -23 32 0 12 -53 57 -62 52 -4 -3 -1 -15 6 -27 15
-23 56 -142 56 -161 0 -6 -9 4 -20 22 -11 17 -24 32 -30 32 -13 0 -13 4 10
-60 22 -59 37 -192 26 -234 -4 -15 -20 -33 -39 -43 l-32 -17 25 -7 c23 -6 23
-7 3 -8 -26 -1 -35 -13 -27 -35 4 -12 20 -16 55 -16 27 0 75 -8 106 -19 32
-10 76 -24 98 -30 22 -6 59 -23 81 -39 117 -77 151 -101 169 -118 20 -19 21
-19 94 2 l74 21 -34 24 c-19 13 -36 27 -37 31 -2 5 -8 6 -12 3 -5 -3 -11 -1
-15 5 -13 21 102 0 270 -49 68 -20 69 -20 45 -1 -14 11 -36 23 -50 28 -14 5
-47 17 -75 27 -60 22 -216 73 -265 87 -27 7 -44 6 -74 -7 -21 -9 -40 -14 -42
-12 -2 2 23 23 56 46 l61 43 -6 61 c-3 34 -8 80 -10 102 l-4 40 14 -30 c8 -16
14 -55 15 -86 0 -68 11 -83 25 -34 l11 37 27 -50 c15 -27 27 -60 27 -72 0 -12
5 -30 11 -41 8 -16 13 -18 24 -9 20 17 115 24 159 11 50 -13 56 -8 26 24 l-23
25 37 0 c36 0 38 -2 67 -66 17 -36 40 -101 52 -145 12 -43 26 -77 31 -76 5 2
22 32 36 66 15 35 30 60 33 55 3 -5 12 -33 21 -63 14 -49 15 -57 0 -78 -8 -13
-26 -29 -40 -35 -27 -13 -31 -30 -10 -47 8 -7 18 -25 21 -41 3 -16 12 -34 20
-40 19 -16 64 63 71 126 7 54 -23 144 -72 217 -25 39 -26 59 -2 40 20 -15 55
-23 138 -29 41 -3 96 -9 122 -14 26 -6 54 -7 63 -4 25 10 167 -46 203 -80 46
-42 78 -118 86 -202 14 -142 16 -150 46 -167 15 -10 33 -17 39 -17 24 0 71 61
73 93 6 97 4 115 -15 152 -11 22 -19 41 -18 43 1 1 -10 25 -25 53 -34 67 -93
122 -179 164 -67 33 -228 75 -288 75 -20 0 -43 14 -80 48 -69 64 -121 103
-185 138 -34 19 -50 34 -47 43 3 8 -4 24 -16 37 l-21 22 20 11 c12 6 32 11 45
11 13 0 36 9 50 20 14 11 32 20 40 20 17 0 47 31 47 49 0 9 -6 11 -17 5 -82
-35 -197 6 -179 64 3 10 2 32 -3 49 -10 34 7 72 27 59 6 -3 12 3 14 16 2 12
14 28 28 35 20 10 21 13 6 13 -12 0 -16 5 -12 16 3 9 6 18 6 20 0 2 8 4 18 5
11 0 12 2 4 6 -19 7 -42 -16 -42 -43 0 -13 -4 -24 -10 -24 -5 0 -10 -7 -10
-15 0 -8 -6 -15 -13 -15 -8 0 -22 -9 -32 -20 -10 -11 -21 -17 -26 -15 -11 7
-33 -99 -26 -126 11 -42 46 -89 75 -100 25 -10 26 -11 8 -21 -47 -26 -157 6
-181 52 -13 25 -12 29 5 45 18 16 18 19 4 48 -15 28 -15 31 5 58 25 34 26 62
6 120 -10 28 -15 74 -14 124 0 54 -4 92 -15 117 -20 47 -20 48 2 48 12 1 9 5
-10 16 -16 8 -28 16 -28 17 0 1 55 1 122 -1 133 -3 139 6 21 28 -40 7 -73 16
-73 20 0 4 39 11 88 15 48 4 143 17 212 30 173 33 190 37 190 44 0 7 -326 91
-354 91 -28 0 -17 18 17 29 62 20 234 51 320 57 48 4 90 10 92 14 7 11 -269
90 -357 102 -110 14 -109 14 -103 40 7 28 -19 158 -40 198 -38 74 -151 166
-233 191 -23 6 -42 18 -42 25 0 30 120 146 239 232 l44 32 -44 0 c-53 0 -165
-29 -232 -58 -61 -27 -122 -75 -157 -124 l-28 -38 -24 37 c-33 54 -29 122 15
258 20 60 35 110 34 112 -2 1 -42 -34 -90 -79z m-138 -600 c-7 -13 -23 -34
-37 -48 l-25 -25 13 25 c12 24 50 70 57 70 2 0 -2 -10 -8 -22z m430 -159 c-8
-16 -14 -18 -22 -10 -9 9 -8 14 3 21 24 16 31 11 19 -11z m130 -288 c6 -10 9
-20 7 -22 -2 -2 -6 -17 -10 -34 -6 -28 -5 -29 9 -11 12 17 15 17 15 4 0 -47
-112 -122 -172 -116 -44 4 -43 28 2 50 19 9 40 17 45 17 6 0 4 -3 -3 -6 -15
-6 -6 -23 13 -23 21 0 68 20 62 26 -3 3 -15 1 -26 -5 -20 -11 -20 -10 -15 32
5 36 3 45 -11 51 -14 5 -15 9 -5 21 28 34 78 -2 62 -44 -3 -9 -1 -12 6 -7 17
10 15 52 -4 70 -14 14 -14 16 0 16 8 0 20 -8 25 -19z m-84 -61 c3 -5 1 -10 -4
-10 -6 0 -11 5 -11 10 0 6 2 10 4 10 3 0 8 -4 11 -10z m-47 -147 c39 -9 72
-20 72 -25 0 -4 -25 -8 -55 -8 -42 0 -57 4 -62 16 -3 9 -15 20 -27 24 -34 14
-6 11 72 -7z m-112 -27 c-5 -28 -4 -34 11 -32 12 0 19 -7 21 -21 3 -17 -2 -23
-17 -23 -20 0 -56 -28 -47 -37 3 -3 15 2 27 10 27 19 49 12 49 -17 0 -26 -56
-146 -68 -146 -27 0 -137 105 -184 176 -30 44 -58 78 -64 77 -5 -1 -10 6 -10
16 0 13 17 5 70 -34 39 -27 83 -63 98 -79 20 -20 28 -24 28 -12 0 17 -6 23
-70 68 l-45 32 60 12 c33 7 76 19 95 28 49 22 53 20 46 -18z m-276 -124 c0 -8
21 -52 46 -99 25 -46 44 -87 41 -89 -6 -6 -61 65 -84 110 -17 33 -73 204 -72
220 0 15 68 -125 69 -142z m499 77 c16 -46 14 -48 -9 -11 -11 18 -24 31 -28
28 -4 -3 -14 -1 -22 5 -11 6 -7 9 17 9 26 0 33 -5 42 -31z m-434 -60 c35 -56
163 -179 188 -179 15 0 87 137 87 166 0 12 -5 35 -11 53 -19 55 -3 45 37 -23
35 -60 63 -80 49 -35 -14 42 8 15 35 -44 22 -48 50 -152 50 -185 0 -2 -12 6
-26 17 -15 12 -37 21 -49 21 -27 0 -75 -36 -75 -56 0 -8 -4 -13 -9 -9 -5 3
-13 0 -17 -6 -5 -8 -3 -9 5 -4 9 5 12 2 9 -10 -2 -13 -15 -17 -55 -19 -29 -2
-50 1 -47 5 3 5 15 9 27 9 37 0 51 14 38 38 -10 19 -15 20 -44 10 -17 -6 -35
-16 -39 -22 -6 -8 -8 -8 -8 1 0 6 16 21 36 32 30 18 34 24 24 36 -19 23 -62
18 -94 -11 -16 -15 -31 -23 -35 -17 -34 52 -101 162 -101 167 0 3 7 3 15 0 8
-4 15 -4 15 -1 0 12 -55 103 -66 110 -7 4 -11 14 -7 23 8 21 26 4 68 -67z
m179 -205 c13 -5 14 -9 5 -20 -6 -8 -17 -14 -24 -14 -6 0 -20 -9 -30 -20 -24
-27 -33 -25 -27 5 2 14 16 32 31 40 32 17 26 16 45 9z m-121 -44 c4 -17 3 -19
-9 -9 -8 6 -14 18 -14 26 0 20 16 8 23 -17z m296 1 c11 -7 10 -11 -5 -19 -27
-13 -48 -4 -33 14 13 16 19 17 38 5z m48 -17 c-3 -3 -12 -4 -19 -1 -8 3 -5 6
6 6 11 1 17 -2 13 -5z m-67 -28 c0 -3 -4 -8 -10 -11 -5 -3 -10 -1 -10 4 0 6 5
11 10 11 6 0 10 -2 10 -4z m47 -2 c-3 -3 -12 -4 -19 -1 -8 3 -5 6 6 6 11 1 17
-2 13 -5z m-237 -18 c0 -18 -26 -39 -42 -33 -8 4 -7 6 5 6 9 1 16 4 16 9 -3
18 2 32 11 32 6 0 10 -6 10 -14z m104 -22 c9 -24 5 -25 -39 -11 -36 11 -37 12
-14 18 39 11 46 10 53 -7z m-98 -22 c-18 -16 -18 -16 -6 6 6 13 14 21 18 18 3
-4 -2 -14 -12 -24z m-295 -9 c13 -17 13 -17 -6 -3 -11 8 -22 16 -24 17 -2 2 0
3 6 3 6 0 17 -8 24 -17z m438 -59 c78 -31 88 -39 41 -31 -32 5 -137 57 -116
57 5 0 39 -12 75 -26z m136 -34 c-3 -5 -15 -10 -26 -10 -11 0 -17 5 -14 10 3
6 15 10 26 10 11 0 17 -4 14 -10z m60 -60 c-3 -5 -12 -10 -18 -10 -7 0 -6 4 3
10 19 12 23 12 15 0z m-65 -170 l45 -41 -45 22 c-58 28 -80 47 -80 72 0 19 1
19 18 4 9 -8 37 -34 62 -57z m1014 -426 c4 -9 4 -19 2 -21 -8 -8 -26 8 -26 23
0 19 16 18 24 -2z"/>
<path d="M2168 4783 c7 -3 16 -2 19 1 4 3 -2 6 -13 5 -11 0 -14 -3 -6 -6z"/>
<path d="M2246 4723 c3 -12 -6 -24 -28 -38 -50 -30 -51 -30 -34 3 20 39 20 48
1 32 -8 -7 -15 -21 -15 -31 0 -24 -8 -24 -45 1 -17 11 -45 19 -65 19 l-35 -1
35 -7 c44 -9 120 -51 120 -66 0 -7 -9 -24 -21 -39 -20 -26 -21 -37 -3 -81 6
-15 -1 -12 -29 12 -55 48 -137 86 -137 64 0 -6 10 -11 22 -11 29 0 116 -57
123 -81 4 -10 10 -19 15 -19 5 0 12 -9 15 -20 7 -24 -29 -80 -51 -80 -23 0
-75 29 -118 66 -22 19 -46 34 -54 34 -8 0 0 -10 19 -23 83 -57 139 -99 139
-106 0 -23 -40 -41 -92 -41 -53 0 -57 2 -96 44 -54 59 -65 82 -58 125 4 25 2
31 -4 21 -16 -25 -11 -70 12 -103 35 -52 81 -97 98 -97 10 0 26 -20 40 -52 37
-81 56 -98 109 -98 90 1 164 56 201 149 15 39 17 40 37 26 11 -8 25 -34 31
-57 7 -25 20 -49 33 -57 l22 -13 -21 27 c-12 15 -22 37 -22 48 0 11 -16 34
-35 53 -19 18 -35 39 -35 47 0 8 -9 26 -21 40 l-20 26 22 30 c18 24 21 38 15
70 -4 30 -2 48 10 66 9 14 12 25 8 25 -5 0 -20 -19 -33 -42 -22 -38 -25 -40
-32 -21 -4 11 -14 24 -21 28 -10 6 -11 5 0 -6 14 -15 16 -49 3 -49 -6 0 -13 5
-16 10 -3 6 -10 10 -15 10 -6 0 -2 -9 7 -19 9 -11 21 -17 27 -14 6 4 5 -1 -3
-10 -19 -24 -48 -21 -77 8 l-25 25 33 63 c18 34 43 66 56 72 22 10 30 39 13
49 -5 4 -7 -2 -5 -11z m43 -249 c-7 -9 -29 -24 -49 -34 -30 -15 -38 -26 -49
-70 -12 -45 -18 -54 -50 -67 -20 -9 -54 -17 -76 -20 l-40 -4 32 15 c17 8 36
23 41 33 21 37 90 103 120 114 18 6 32 15 32 20 0 6 -9 5 -21 -1 -36 -20 -33
-2 3 20 19 11 41 32 49 48 l13 27 4 -33 c2 -18 -2 -40 -9 -48z m-95 5 c-6 -11
-24 -2 -24 11 0 5 7 7 15 4 8 -4 12 -10 9 -15z"/>
<path d="M1919 4703 c-13 -16 -12 -17 4 -4 9 7 17 15 17 17 0 8 -8 3 -21 -13z"/>
<path d="M1965 4690 c-3 -6 1 -7 9 -4 18 7 21 14 7 14 -6 0 -13 -4 -16 -10z"/>
<path d="M2321 4670 c14 -31 19 -36 19 -24 0 6 -7 19 -16 30 -14 18 -14 18 -3
-6z"/>
<path d="M1880 4608 c-29 -44 -32 -53 -6 -23 22 26 32 45 23 45 -1 0 -9 -10
-17 -22z"/>
<path d="M1900 4580 c0 -5 5 -10 10 -10 6 0 10 5 10 10 0 6 -4 10 -10 10 -5 0
-10 -4 -10 -10z"/>
<path d="M2624 4455 c-9 -14 -18 -47 -20 -73 -3 -50 1 -42 11 21 3 21 15 47
26 58 10 10 15 19 9 19 -5 0 -17 -11 -26 -25z"/>
<path d="M2112 4439 c-13 -16 -17 -27 -10 -24 13 5 42 45 36 50 -2 1 -13 -11
-26 -26z"/>
<path d="M2126 4413 c-6 -14 -5 -15 5 -6 7 7 10 15 7 18 -3 3 -9 -2 -12 -12z"/>
<path d="M2651 4369 c-9 -25 -6 -39 8 -39 13 0 22 43 11 54 -6 6 -13 0 -19
-15z"/>
<path d="M2052 4345 c-12 -14 -18 -25 -13 -25 11 0 45 39 39 45 -2 3 -14 -6
-26 -20z"/>
<path d="M2780 4351 c-14 -28 -12 -51 5 -51 18 0 38 37 31 56 -8 20 -23 17
-36 -5z"/>
<path d="M2590 4320 c-8 -5 -11 -12 -7 -16 4 -4 15 0 24 9 18 18 8 23 -17 7z"/>
<path d="M2657 4293 c-4 -3 -7 -12 -7 -19 0 -9 5 -10 24 -1 13 7 22 15 20 19
-6 10 -28 10 -37 1z"/>
<path d="M2594 4234 c5 -10 11 -40 14 -67 4 -43 22 -78 22 -44 0 8 7 18 16 21
12 4 14 1 9 -13 -9 -29 28 -44 117 -48 75 -3 77 -2 102 28 46 54 28 115 -31
106 -27 -4 -27 -4 4 -6 74 -3 35 -61 -42 -61 -88 0 -215 40 -188 59 5 3 0 15
-11 25 -19 19 -19 19 -12 0z m169 -131 c-7 -2 -21 -2 -30 0 -10 3 -4 5 12 5
17 0 24 -2 18 -5z"/>
<path d="M2920 4216 c0 -2 7 -7 16 -10 8 -3 12 -2 9 4 -6 10 -25 14 -25 6z"/>
<path d="M2648 4203 c7 -3 16 -2 19 1 4 3 -2 6 -13 5 -11 0 -14 -3 -6 -6z"/>
<path d="M2325 4090 c-16 -16 -25 -33 -22 -37 8 -7 67 45 67 59 0 16 -17 8
-45 -22z"/>
<path d="M2110 4069 c0 -4 9 -11 20 -14 11 -4 31 -22 43 -40 13 -19 37 -44 53
-57 24 -19 23 -16 -9 21 -42 47 -43 57 -3 42 14 -6 26 -7 26 -3 0 5 -29 20
-65 34 -36 14 -65 22 -65 17z"/>
<path d="M2670 4070 c8 -5 22 -9 30 -9 10 0 8 3 -5 9 -27 12 -43 12 -25 0z"/>
<path d="M2315 4040 c-16 -11 -26 -20 -22 -20 11 0 67 29 67 35 0 10 -16 4
-45 -15z"/>
<path d="M3553 3703 c-18 -2 -33 -8 -33 -13 0 -4 8 -6 19 -3 28 7 72 -56 79
-112 2 -25 9 -45 14 -45 5 0 7 8 4 18 -2 9 -7 32 -11 50 -4 18 -18 46 -31 62
-23 27 -23 29 -7 39 10 6 14 10 8 9 -5 -1 -25 -3 -42 -5z"/>
<path d="M3652 3683 c8 -10 21 -27 27 -38 11 -18 11 -18 5 5 -7 25 -27 50 -40
50 -4 0 0 -8 8 -17z"/>
<path d="M2062 3583 c-19 -44 -21 -187 -3 -221 11 -20 77 -49 88 -38 4 3 -2
14 -11 25 -45 49 -68 166 -47 239 13 45 -6 41 -27 -5z"/>
<path d="M3530 3591 c5 -11 10 -32 10 -47 0 -20 3 -25 11 -17 7 7 6 21 -5 47
-8 20 -18 36 -21 36 -3 0 -1 -9 5 -19z"/>
<path d="M3295 3545 c-19 -22 -35 -47 -35 -57 0 -26 7 -22 25 13 9 16 25 39
36 50 12 12 18 23 15 26 -3 3 -21 -11 -41 -32z"/>
<path d="M2095 3530 c-12 -19 5 -82 43 -159 29 -59 44 -79 81 -102 54 -34 81
-36 106 -9 20 23 21 22 -20 43 -70 37 -185 166 -185 209 0 21 -16 32 -25 18z"/>
<path d="M3681 3487 c-13 -21 -12 -21 5 -5 10 10 16 20 13 22 -3 3 -11 -5 -18
-17z"/>
<path d="M2366 3266 c-74 -28 -74 -35 -2 -109 36 -37 68 -67 71 -67 3 0 19 21
35 47 32 50 39 103 16 122 -23 19 -78 22 -120 7z"/>
</g>
</svg>
